# Blender 3.5.0
# www.blender.org
mtllib buildingTwo.mtl
o Cube.002
v -0.600000 1.000000 0.600000
v -0.600000 -1.000000 0.600000
v -0.600000 1.000000 1.000000
v -0.600000 -1.000000 1.000000
v -1.000000 1.000000 0.600000
v -1.000000 -1.000000 0.600000
v -1.000000 1.000000 1.000000
v -1.000000 -1.000000 1.000000
v 0.500000 0.100000 0.900000
v 0.500000 -0.100000 0.900000
v -0.900000 0.100000 -0.500000
v -0.900000 -0.100000 -0.500000
v -0.600000 0.100000 0.600000
v -0.900000 0.100000 0.600000
v -0.600000 0.100000 0.900000
v -0.600000 -0.100000 0.900000
v -0.900000 -0.100000 0.600000
v -0.600000 -0.100000 0.600000
v 0.500000 0.100000 0.308314
v -0.308314 0.100000 -0.500000
v -0.308314 -0.100000 -0.500000
v 0.500000 -0.100000 0.308314
v 0.500000 0.500000 0.900000
v 0.500000 0.300000 0.900000
v -0.900000 0.500000 -0.500000
v -0.900000 0.300000 -0.500000
v -0.600000 0.500000 0.600000
v -0.900000 0.500000 0.600000
v -0.600000 0.500000 0.900000
v -0.600000 0.300000 0.900000
v -0.900000 0.300000 0.600000
v -0.600000 0.300000 0.600000
v 0.500000 0.500000 0.308314
v -0.308314 0.500000 -0.500000
v -0.308314 0.300000 -0.500000
v 0.500000 0.300000 0.308314
v 0.500000 0.900000 0.900000
v 0.500000 0.700000 0.900000
v -0.900000 0.900000 -0.500000
v -0.900000 0.700000 -0.500000
v -0.600000 0.900000 0.600000
v -0.900000 0.900000 0.600000
v -0.600000 0.900000 0.900000
v -0.600000 0.700000 0.900000
v -0.900000 0.700000 0.600000
v -0.600000 0.700000 0.600000
v 0.500000 0.900000 0.308314
v -0.308314 0.900000 -0.500000
v -0.308314 0.700000 -0.500000
v 0.500000 0.700000 0.308314
v 0.500000 -0.300000 0.900000
v 0.500000 -0.500000 0.900000
v -0.900000 -0.300000 -0.500000
v -0.900000 -0.500000 -0.500000
v -0.600000 -0.300000 0.600000
v -0.900000 -0.300000 0.600000
v -0.600000 -0.300000 0.900000
v -0.600000 -0.500000 0.900000
v -0.900000 -0.500000 0.600000
v -0.600000 -0.500000 0.600000
v 0.500000 -0.300000 0.308314
v -0.308314 -0.300000 -0.500000
v -0.308314 -0.500000 -0.500000
v 0.500000 -0.500000 0.308314
v 0.500000 -0.600000 0.900000
v 0.500000 -1.000000 0.900000
v -0.900000 -0.600000 -0.500000
v -0.900000 -1.000000 -0.500000
v -0.600000 -0.600000 0.600000
v -0.900000 -0.600000 0.600000
v -0.600000 -0.600000 0.900000
v -0.600000 -1.000000 0.900000
v -0.900000 -1.000000 0.600000
v 0.500000 -0.600000 0.308314
v -0.308314 -0.600000 -0.500000
v -0.308314 -1.000000 -0.500000
v 0.500000 -1.000000 0.308314
vn -0.0000 1.0000 -0.0000
vn -0.0000 -0.0000 1.0000
vn -1.0000 -0.0000 -0.0000
vn 1.0000 -0.0000 -0.0000
vn -0.0000 -0.0000 -1.0000
vn -0.0000 -1.0000 -0.0000
vn 0.7071 -0.0000 -0.7071
vt 0.625000 0.500000
vt 0.375000 0.500000
vt 0.625000 0.750000
vt 0.375000 0.750000
vt 0.875000 0.500000
vt 0.625000 0.250000
vt 0.375000 0.250000
vt 0.875000 0.750000
vt 0.625000 1.000000
vt 0.625000 0.000000
vt 0.375000 1.000000
vt 0.375000 0.000000
vt 0.625000 0.750000
vt 0.375000 0.750000
vt 0.875000 0.500000
vt 0.625000 0.250000
vt 0.125000 0.500000
vt 0.375000 0.250000
vt 0.821428 0.696428
vt 0.625000 0.053571
vt 0.875000 0.696429
vt 0.625000 0.946429
vt 0.821429 0.750000
vt 0.178571 0.750000
vt 0.375000 0.946429
vt 0.125000 0.696429
vt 0.375000 0.053571
vt 0.178571 0.696429
vt 0.625000 0.644342
vt 0.769342 0.500000
vt 0.625000 0.355658
vt 0.230658 0.500000
vt 0.375000 0.355658
vt 0.375000 0.644342
vt 0.625000 0.750000
vt 0.375000 0.750000
vt 0.875000 0.500000
vt 0.625000 0.250000
vt 0.125000 0.500000
vt 0.375000 0.250000
vt 0.821428 0.696428
vt 0.625000 0.053571
vt 0.875000 0.696429
vt 0.625000 0.946429
vt 0.821429 0.750000
vt 0.178571 0.750000
vt 0.375000 0.946429
vt 0.125000 0.696429
vt 0.375000 0.053571
vt 0.178571 0.696429
vt 0.625000 0.644342
vt 0.769342 0.500000
vt 0.625000 0.355658
vt 0.230658 0.500000
vt 0.375000 0.355658
vt 0.375000 0.644342
vt 0.625000 0.750000
vt 0.375000 0.750000
vt 0.875000 0.500000
vt 0.625000 0.250000
vt 0.125000 0.500000
vt 0.375000 0.250000
vt 0.821428 0.696428
vt 0.625000 0.053571
vt 0.875000 0.696429
vt 0.625000 0.946429
vt 0.821429 0.750000
vt 0.178571 0.750000
vt 0.375000 0.946429
vt 0.125000 0.696429
vt 0.375000 0.053571
vt 0.178571 0.696429
vt 0.625000 0.644342
vt 0.769342 0.500000
vt 0.625000 0.355658
vt 0.230658 0.500000
vt 0.375000 0.355658
vt 0.375000 0.644342
vt 0.625000 0.750000
vt 0.375000 0.750000
vt 0.875000 0.500000
vt 0.625000 0.250000
vt 0.125000 0.500000
vt 0.375000 0.250000
vt 0.821428 0.696428
vt 0.625000 0.053571
vt 0.875000 0.696429
vt 0.625000 0.946429
vt 0.821429 0.750000
vt 0.178571 0.750000
vt 0.375000 0.946429
vt 0.125000 0.696429
vt 0.375000 0.053571
vt 0.178571 0.696429
vt 0.625000 0.644342
vt 0.769342 0.500000
vt 0.625000 0.355658
vt 0.230658 0.500000
vt 0.375000 0.355658
vt 0.375000 0.644342
vt 0.625000 0.750000
vt 0.375000 0.750000
vt 0.875000 0.500000
vt 0.625000 0.250000
vt 0.375000 0.250000
vt 0.821428 0.696428
vt 0.625000 0.053571
vt 0.875000 0.696429
vt 0.625000 0.946429
vt 0.821429 0.750000
vt 0.375000 0.946429
vt 0.375000 0.053571
vt 0.625000 0.644342
vt 0.769342 0.500000
vt 0.625000 0.355658
vt 0.375000 0.355658
vt 0.375000 0.644342
s 0
usemtl Material.002
f 1/1/1 5/5/1 7/8/1 3/3/1
f 4/4/2 3/3/2 7/9/2 8/11/2
f 8/12/3 7/10/3 5/6/3 6/7/3
f 2/2/4 1/1/4 3/3/4 4/4/4
f 6/7/5 5/6/5 1/1/5 2/2/5
usemtl Material.003
f 17/26/6 12/17/6 21/32/6 22/34/6 10/14/6 16/24/6 18/28/6
f 16/25/2 10/14/2 9/13/2 15/22/2
f 14/20/3 11/16/3 12/18/3 17/27/3
f 15/23/1 9/13/1 19/29/1 20/30/1 11/15/1 14/21/1 13/19/1
f 22/34/4 19/29/4 9/13/4 10/14/4
f 19/29/7 22/34/7 21/33/7 20/31/7
f 12/18/5 11/16/5 20/31/5 21/33/5
usemtl Material.004
f 31/48/6 26/39/6 35/54/6 36/56/6 24/36/6 30/46/6 32/50/6
f 30/47/2 24/36/2 23/35/2 29/44/2
f 28/42/3 25/38/3 26/40/3 31/49/3
f 29/45/1 23/35/1 33/51/1 34/52/1 25/37/1 28/43/1 27/41/1
f 36/56/4 33/51/4 23/35/4 24/36/4
f 33/51/7 36/56/7 35/55/7 34/53/7
f 26/40/5 25/38/5 34/53/5 35/55/5
usemtl Material.005
f 45/70/6 40/61/6 49/76/6 50/78/6 38/58/6 44/68/6 46/72/6
f 44/69/2 38/58/2 37/57/2 43/66/2
f 42/64/3 39/60/3 40/62/3 45/71/3
f 43/67/1 37/57/1 47/73/1 48/74/1 39/59/1 42/65/1 41/63/1
f 50/78/4 47/73/4 37/57/4 38/58/4
f 47/73/7 50/78/7 49/77/7 48/75/7
f 40/62/5 39/60/5 48/75/5 49/77/5
usemtl Material.006
f 59/92/6 54/83/6 63/98/6 64/100/6 52/80/6 58/90/6 60/94/6
f 58/91/2 52/80/2 51/79/2 57/88/2
f 56/86/3 53/82/3 54/84/3 59/93/3
f 57/89/1 51/79/1 61/95/1 62/96/1 53/81/1 56/87/1 55/85/1
f 64/100/4 61/95/4 51/79/4 52/80/4
f 61/95/7 64/100/7 63/99/7 62/97/7
f 54/84/5 53/82/5 62/97/5 63/99/5
usemtl Material.007
f 72/111/2 66/102/2 65/101/2 71/109/2
f 70/107/3 67/104/3 68/105/3 73/112/3
f 71/110/1 65/101/1 74/113/1 75/114/1 67/103/1 70/108/1 69/106/1
f 77/117/4 74/113/4 65/101/4 66/102/4
f 74/113/7 77/117/7 76/116/7 75/115/7
f 68/105/5 67/104/5 75/115/5 76/116/5
