# Blender 3.5.0
# www.blender.org
mtllib buildingFour.mtl
o Cube
v 0.508865 -0.811743 -0.500000
v 0.700000 -1.070360 -0.500000
v 0.700000 -0.929640 0.500000
v 0.700000 -1.070360 0.500000
v -0.508865 -0.811743 -0.500000
v -0.700000 -1.070360 -0.500000
v -0.700000 -0.929640 0.500000
v -0.700000 -1.070360 0.500000
v 0.700000 -1.070360 -0.650000
v -0.700000 -1.070360 -0.650000
v 0.508865 -0.811743 -0.650000
v -0.508865 -0.811743 -0.650000
v -0.508865 -0.447537 -0.500000
v 0.508865 -0.447537 -0.500000
v -0.508865 -0.447537 -0.650000
v 0.508865 -0.447537 -0.650000
v -0.700000 -0.179640 -0.500000
v 0.700000 -0.179640 -0.500000
v -0.700000 -0.329640 -0.002561
v 0.700000 -0.329640 -0.002561
v -0.700000 -0.929640 -0.500000
v 0.700000 -0.929640 -0.500000
v -0.700000 -0.929640 -0.650000
v 0.700000 -0.929640 -0.650000
v -0.700000 -0.329640 -0.500000
v 0.700000 -0.329640 -0.500000
v -0.700000 -0.329640 -0.650000
v 0.700000 -0.329640 -0.650000
v -0.700000 -0.216106 -0.002561
v -0.700000 -0.179640 -0.261697
v 0.700000 -0.179640 -0.261697
v 0.700000 -0.216106 -0.002561
v -0.700000 -0.179640 -0.500000
v -0.700000 -0.329640 -0.650000
v 0.700000 -0.329640 -0.650000
v 0.700000 -0.179640 -0.500000
v -0.047496 -0.799640 -0.070629
v -0.047496 -0.940360 -0.070629
v -0.047496 -0.799640 0.070629
v -0.047496 -0.940360 0.070629
v -0.607496 -0.799640 -0.070629
v -0.607496 -0.940360 -0.070629
v -0.607496 -0.799640 0.070629
v -0.607496 -0.940360 0.070629
v -0.047496 -0.799072 0.129371
v -0.047496 -0.939791 0.129371
v -0.047496 -0.799072 0.270629
v -0.047496 -0.939791 0.270629
v -0.607496 -0.799072 0.129371
v -0.607496 -0.939791 0.129371
v -0.607496 -0.799072 0.270629
v -0.607496 -0.939791 0.270629
v -0.047496 -0.799072 -0.270629
v -0.047496 -0.939791 -0.270629
v -0.047496 -0.799072 -0.129371
v -0.047496 -0.939791 -0.129371
v -0.607496 -0.799072 -0.270629
v -0.607496 -0.939791 -0.270629
v -0.607496 -0.799072 -0.129371
v -0.607496 -0.939791 -0.129371
v -0.047496 -0.659645 -0.170629
v -0.047496 -0.800364 -0.170629
v -0.047496 -0.659645 -0.029371
v -0.047496 -0.800364 -0.029371
v -0.607496 -0.659645 -0.170629
v -0.607496 -0.800364 -0.170629
v -0.607496 -0.659645 -0.029371
v -0.607496 -0.800364 -0.029371
v -0.047496 -0.659645 0.029371
v -0.047496 -0.800364 0.029371
v -0.047496 -0.659645 0.170629
v -0.047496 -0.800364 0.170629
v -0.607496 -0.659645 0.029371
v -0.607496 -0.800364 0.029371
v -0.607496 -0.659645 0.170629
v -0.607496 -0.800364 0.170629
v 0.607496 -0.659645 0.029371
v 0.607496 -0.800364 0.029371
v 0.607496 -0.659645 0.170629
v 0.607496 -0.800364 0.170629
v 0.047496 -0.659645 0.029371
v 0.047496 -0.800364 0.029371
v 0.047496 -0.659645 0.170629
v 0.047496 -0.800364 0.170629
v 0.607496 -0.659645 -0.170629
v 0.607496 -0.800364 -0.170629
v 0.607496 -0.659645 -0.029371
v 0.607496 -0.800364 -0.029371
v 0.047496 -0.659645 -0.170629
v 0.047496 -0.800364 -0.170629
v 0.047496 -0.659645 -0.029371
v 0.047496 -0.800364 -0.029371
v 0.607496 -0.799072 -0.270629
v 0.607496 -0.939791 -0.270629
v 0.607496 -0.799072 -0.129371
v 0.607496 -0.939791 -0.129371
v 0.047496 -0.799072 -0.270629
v 0.047496 -0.939791 -0.270629
v 0.047496 -0.799072 -0.129371
v 0.047496 -0.939791 -0.129371
v 0.607496 -0.799072 0.129371
v 0.607496 -0.939791 0.129371
v 0.607496 -0.799072 0.270629
v 0.607496 -0.939791 0.270629
v 0.047496 -0.799072 0.129371
v 0.047496 -0.939791 0.129371
v 0.047496 -0.799072 0.270629
v 0.047496 -0.939791 0.270629
v 0.607496 -0.799640 -0.070629
v 0.607496 -0.940360 -0.070629
v 0.607496 -0.799640 0.070629
v 0.607496 -0.940360 0.070629
v 0.047496 -0.799640 -0.070629
v 0.047496 -0.940360 -0.070629
v 0.047496 -0.799640 0.070629
v 0.047496 -0.940360 0.070629
vn -0.0000 1.0000 -0.0000
vn -0.0000 -0.0000 1.0000
vn -1.0000 -0.0000 -0.0000
vn -0.0000 -1.0000 -0.0000
vn 1.0000 -0.0000 -0.0000
vn -0.0000 -0.0000 -1.0000
vn -0.0000 0.9902 0.1393
vn -0.0000 0.7071 -0.7071
vt 0.659131 0.500000
vt 0.375000 0.500000
vt 0.625000 0.750000
vt 0.375000 0.750000
vt 0.840869 0.500000
vt 0.375000 0.250000
vt 0.125000 0.500000
vt 0.875000 0.750000
vt 0.625000 1.000000
vt 0.625000 0.000000
vt 0.375000 1.000000
vt 0.375000 0.000000
vt 0.125000 0.750000
vt 0.375000 0.500000
vt 0.375000 0.250000
vt 0.125000 0.500000
vt 0.625000 0.465869
vt 0.625000 0.284131
vt 0.840869 0.500000
vt 0.659131 0.500000
vt 0.625000 0.284131
vt 0.625000 0.465869
vt 0.625000 0.250000
vt 0.875000 0.500000
vt 0.625000 0.500000
vt 0.625000 0.250000
vt 0.875000 0.500000
vt 0.625000 0.500000
vt 0.625000 0.250000
vt 0.875000 0.500000
vt 0.625000 0.500000
vt 0.625000 0.250000
vt 0.625000 0.500000
vt 0.625000 0.250000
vt 0.875000 0.500000
vt 0.625000 0.500000
vt 0.625000 0.250000
vt 0.625000 0.500000
vt 0.625000 0.250000
vt 0.875000 0.500000
vt 0.625000 0.250000
vt 0.875000 0.500000
vt 0.625000 0.500000
vt 0.625000 0.500000
vt 0.875000 0.500000
vt 0.625000 0.250000
vt 0.625000 0.250000
vt 0.625000 0.500000
vt 0.625000 0.500000
vt 0.625000 0.500000
vt 0.375000 0.500000
vt 0.625000 0.750000
vt 0.375000 0.750000
vt 0.875000 0.500000
vt 0.625000 0.250000
vt 0.125000 0.500000
vt 0.375000 0.250000
vt 0.875000 0.750000
vt 0.625000 1.000000
vt 0.625000 0.000000
vt 0.375000 1.000000
vt 0.375000 0.000000
vt 0.125000 0.750000
vt 0.625000 0.500000
vt 0.375000 0.500000
vt 0.625000 0.750000
vt 0.375000 0.750000
vt 0.875000 0.500000
vt 0.625000 0.250000
vt 0.125000 0.500000
vt 0.375000 0.250000
vt 0.875000 0.750000
vt 0.625000 1.000000
vt 0.625000 0.000000
vt 0.375000 1.000000
vt 0.375000 0.000000
vt 0.125000 0.750000
vt 0.625000 0.500000
vt 0.375000 0.500000
vt 0.625000 0.750000
vt 0.375000 0.750000
vt 0.875000 0.500000
vt 0.625000 0.250000
vt 0.125000 0.500000
vt 0.375000 0.250000
vt 0.875000 0.750000
vt 0.625000 1.000000
vt 0.625000 0.000000
vt 0.375000 1.000000
vt 0.375000 0.000000
vt 0.125000 0.750000
vt 0.625000 0.500000
vt 0.375000 0.500000
vt 0.625000 0.750000
vt 0.375000 0.750000
vt 0.875000 0.500000
vt 0.625000 0.250000
vt 0.125000 0.500000
vt 0.375000 0.250000
vt 0.875000 0.750000
vt 0.625000 1.000000
vt 0.625000 0.000000
vt 0.375000 1.000000
vt 0.375000 0.000000
vt 0.125000 0.750000
vt 0.625000 0.500000
vt 0.375000 0.500000
vt 0.625000 0.750000
vt 0.375000 0.750000
vt 0.875000 0.500000
vt 0.625000 0.250000
vt 0.125000 0.500000
vt 0.375000 0.250000
vt 0.875000 0.750000
vt 0.625000 1.000000
vt 0.625000 0.000000
vt 0.375000 1.000000
vt 0.375000 0.000000
vt 0.125000 0.750000
vt 0.625000 0.500000
vt 0.375000 0.500000
vt 0.625000 0.750000
vt 0.375000 0.750000
vt 0.875000 0.500000
vt 0.625000 0.250000
vt 0.125000 0.500000
vt 0.375000 0.250000
vt 0.875000 0.750000
vt 0.625000 1.000000
vt 0.625000 0.000000
vt 0.375000 1.000000
vt 0.375000 0.000000
vt 0.125000 0.750000
vt 0.625000 0.500000
vt 0.375000 0.500000
vt 0.625000 0.750000
vt 0.375000 0.750000
vt 0.875000 0.500000
vt 0.625000 0.250000
vt 0.125000 0.500000
vt 0.375000 0.250000
vt 0.875000 0.750000
vt 0.625000 1.000000
vt 0.625000 0.000000
vt 0.375000 1.000000
vt 0.375000 0.000000
vt 0.125000 0.750000
vt 0.625000 0.500000
vt 0.375000 0.500000
vt 0.625000 0.750000
vt 0.375000 0.750000
vt 0.875000 0.500000
vt 0.625000 0.250000
vt 0.125000 0.500000
vt 0.375000 0.250000
vt 0.875000 0.750000
vt 0.625000 1.000000
vt 0.625000 0.000000
vt 0.375000 1.000000
vt 0.375000 0.000000
vt 0.125000 0.750000
vt 0.625000 0.500000
vt 0.375000 0.500000
vt 0.625000 0.750000
vt 0.375000 0.750000
vt 0.875000 0.500000
vt 0.625000 0.250000
vt 0.125000 0.500000
vt 0.375000 0.250000
vt 0.875000 0.750000
vt 0.625000 1.000000
vt 0.625000 0.000000
vt 0.375000 1.000000
vt 0.375000 0.000000
vt 0.125000 0.750000
vt 0.625000 0.500000
vt 0.375000 0.500000
vt 0.625000 0.750000
vt 0.375000 0.750000
vt 0.875000 0.500000
vt 0.625000 0.250000
vt 0.125000 0.500000
vt 0.375000 0.250000
vt 0.875000 0.750000
vt 0.625000 1.000000
vt 0.625000 0.000000
vt 0.375000 1.000000
vt 0.375000 0.000000
vt 0.125000 0.750000
s 0
usemtl Material
f 22/31/1 21/30/1 7/8/1 3/3/1
f 4/4/2 3/3/2 7/9/2 8/11/2
f 8/12/3 7/10/3 21/29/3 6/6/3
f 6/7/4 2/2/4 4/4/4 8/13/4
f 2/2/5 22/31/5 3/3/5 4/4/5
f 6/6/3 21/29/3 23/32/3 10/15/3
f 10/15/6 23/32/6 24/33/6 9/14/6
f 2/2/4 6/7/4 10/16/4 9/14/4
f 23/32/3 21/29/3 25/34/3 27/37/3
f 22/31/5 2/2/5 9/14/5 24/33/5
f 26/36/5 28/38/5 35/48/5 36/49/5 18/25/5
f 15/21/4 16/22/4 14/20/4 13/19/4
f 22/31/5 24/33/5 28/38/5 26/36/5
f 12/18/5 15/21/5 13/19/5 5/5/5
f 27/37/3 25/34/3 17/23/3 33/46/3 34/47/3
f 25/35/4 26/36/4 20/28/4 19/27/4
f 17/24/1 18/25/1 36/49/1 33/45/1
f 17/23/3 25/34/3 19/26/3 29/39/3 30/41/3
f 26/36/5 18/25/5 31/43/5 32/44/5 20/28/5
f 19/27/2 20/28/2 32/44/2 29/40/2
f 1/1/2 5/5/2 21/30/2 22/31/2
f 12/18/6 11/17/6 24/33/6 23/32/6
f 13/19/2 14/20/2 26/36/2 25/35/2
f 16/22/6 15/21/6 27/37/6 28/38/6
f 5/5/2 13/19/2 25/35/2 21/30/2
f 15/21/6 12/18/6 23/32/6 27/37/6
f 14/20/2 1/1/2 22/31/2 26/36/2
f 11/17/6 16/22/6 28/38/6 24/33/6
f 16/22/3 11/17/3 1/1/3 14/20/3
f 11/17/1 12/18/1 5/5/1 1/1/1
f 29/40/7 32/44/7 31/43/7 30/42/7
f 18/25/1 17/24/1 30/42/1 31/43/1
f 33/46/8 36/49/8 35/48/8 34/47/8
f 28/38/1 27/37/1 34/47/1 35/48/1
usemtl Material.002
f 37/50/1 41/54/1 43/58/1 39/52/1
f 40/53/2 39/52/2 43/59/2 44/61/2
f 44/62/3 43/60/3 41/55/3 42/57/3
f 42/56/4 38/51/4 40/53/4 44/63/4
f 38/51/5 37/50/5 39/52/5 40/53/5
f 42/57/6 41/55/6 37/50/6 38/51/6
usemtl Material.003
f 45/64/1 49/68/1 51/72/1 47/66/1
f 48/67/2 47/66/2 51/73/2 52/75/2
f 52/76/3 51/74/3 49/69/3 50/71/3
f 50/70/4 46/65/4 48/67/4 52/77/4
f 46/65/5 45/64/5 47/66/5 48/67/5
f 50/71/6 49/69/6 45/64/6 46/65/6
usemtl Material.004
f 53/78/1 57/82/1 59/86/1 55/80/1
f 56/81/2 55/80/2 59/87/2 60/89/2
f 60/90/3 59/88/3 57/83/3 58/85/3
f 58/84/4 54/79/4 56/81/4 60/91/4
f 54/79/5 53/78/5 55/80/5 56/81/5
f 58/85/6 57/83/6 53/78/6 54/79/6
usemtl Material.005
f 61/92/1 65/96/1 67/100/1 63/94/1
f 64/95/2 63/94/2 67/101/2 68/103/2
f 68/104/3 67/102/3 65/97/3 66/99/3
f 66/98/4 62/93/4 64/95/4 68/105/4
f 62/93/5 61/92/5 63/94/5 64/95/5
f 66/99/6 65/97/6 61/92/6 62/93/6
usemtl Material.006
f 69/106/1 73/110/1 75/114/1 71/108/1
f 72/109/2 71/108/2 75/115/2 76/117/2
f 76/118/3 75/116/3 73/111/3 74/113/3
f 74/112/4 70/107/4 72/109/4 76/119/4
f 70/107/5 69/106/5 71/108/5 72/109/5
f 74/113/6 73/111/6 69/106/6 70/107/6
usemtl Material.007
f 77/120/1 81/124/1 83/128/1 79/122/1
f 80/123/2 79/122/2 83/129/2 84/131/2
f 84/132/3 83/130/3 81/125/3 82/127/3
f 82/126/4 78/121/4 80/123/4 84/133/4
f 78/121/5 77/120/5 79/122/5 80/123/5
f 82/127/6 81/125/6 77/120/6 78/121/6
usemtl Material.008
f 85/134/1 89/138/1 91/142/1 87/136/1
f 88/137/2 87/136/2 91/143/2 92/145/2
f 92/146/3 91/144/3 89/139/3 90/141/3
f 90/140/4 86/135/4 88/137/4 92/147/4
f 86/135/5 85/134/5 87/136/5 88/137/5
f 90/141/6 89/139/6 85/134/6 86/135/6
usemtl Material.009
f 93/148/1 97/152/1 99/156/1 95/150/1
f 96/151/2 95/150/2 99/157/2 100/159/2
f 100/160/3 99/158/3 97/153/3 98/155/3
f 98/154/4 94/149/4 96/151/4 100/161/4
f 94/149/5 93/148/5 95/150/5 96/151/5
f 98/155/6 97/153/6 93/148/6 94/149/6
usemtl Material.010
f 101/162/1 105/166/1 107/170/1 103/164/1
f 104/165/2 103/164/2 107/171/2 108/173/2
f 108/174/3 107/172/3 105/167/3 106/169/3
f 106/168/4 102/163/4 104/165/4 108/175/4
f 102/163/5 101/162/5 103/164/5 104/165/5
f 106/169/6 105/167/6 101/162/6 102/163/6
usemtl Material.011
f 109/176/1 113/180/1 115/184/1 111/178/1
f 112/179/2 111/178/2 115/185/2 116/187/2
f 116/188/3 115/186/3 113/181/3 114/183/3
f 114/182/4 110/177/4 112/179/4 116/189/4
f 110/177/5 109/176/5 111/178/5 112/179/5
f 114/183/6 113/181/6 109/176/6 110/177/6
