# Blender 3.5.0
# www.blender.org
mtllib house.mtl
o Cube.001
v 0.041117 -0.581121 -0.014282
v 0.041117 -1.000000 -0.014282
v 0.041117 -0.581121 0.385718
v 0.041117 -1.000000 0.385718
v -0.358883 -0.581121 -0.014282
v -0.358883 -1.000000 -0.014282
v -0.358883 -0.581121 0.385718
v -0.358883 -1.000000 0.385718
v 0.041117 -0.450889 0.185718
v -0.358883 -0.450889 0.185718
v 0.061117 -0.450889 0.185718
v 0.061117 -0.581121 0.385718
v 0.061117 -0.581121 -0.014282
v 0.061117 -0.430609 0.185718
v 0.061117 -0.560841 0.385718
v 0.061117 -0.560841 -0.014282
v -0.378883 -0.450889 0.185718
v -0.378883 -0.581121 -0.014282
v -0.378883 -0.581121 0.385718
v -0.378883 -0.430609 0.185718
v -0.378883 -0.560841 -0.014282
v -0.378883 -0.560841 0.385718
v -0.378883 -0.560841 -0.029282
v 0.061117 -0.581121 -0.029282
v 0.061117 -0.560841 -0.029282
v -0.378883 -0.581121 -0.029282
v 0.061117 -0.560841 0.400717
v 0.061117 -0.581121 0.400717
v -0.378883 -0.560841 0.400717
v -0.378883 -0.581121 0.400717
vn -0.0000 -0.0000 1.0000
vn -1.0000 -0.0000 -0.0000
vn 1.0000 -0.0000 -0.0000
vn -0.0000 -0.0000 -1.0000
vn -0.0000 0.8380 -0.5457
vn -0.0000 0.8380 0.5457
vn -0.0000 1.0000 -0.0000
vt 0.625000 0.500000
vt 0.375000 0.500000
vt 0.625000 0.750000
vt 0.375000 0.750000
vt 0.625000 0.250000
vt 0.375000 0.250000
vt 0.625000 1.000000
vt 0.625000 0.000000
vt 0.375000 1.000000
vt 0.375000 0.000000
vt 0.625000 0.625000
vt 0.625000 0.125000
vt 0.625000 0.625000
vt 0.625000 0.750000
vt 0.625000 0.500000
vt 0.625000 0.625000
vt 0.625000 0.750000
vt 0.625000 0.500000
vt 0.625000 0.125000
vt 0.625000 0.250000
vt 0.625000 0.000000
vt 0.875000 0.625000
vt 0.625000 0.125000
vt 0.625000 0.250000
vt 0.875000 0.500000
vt 0.625000 0.000000
vt 0.875000 0.750000
vt 0.625000 0.250000
vt 0.875000 0.500000
vt 0.625000 0.500000
vt 0.625000 0.500000
vt 0.625000 0.250000
vt 0.625000 0.750000
vt 0.625000 0.750000
vt 0.625000 0.000000
vt 0.875000 0.750000
vt 0.625000 1.000000
vt 0.625000 0.000000
vt 0.625000 1.000000
s 0
usemtl Material.001
f 4/4/1 3/3/1 7/7/1 8/9/1
f 8/10/2 7/8/2 10/12/2 5/5/2 6/6/2
f 2/2/3 1/1/3 9/11/3 3/3/3 4/4/3
f 6/6/4 5/5/4 1/1/4 2/2/4
f 21/25/5 20/22/5 14/16/5 16/18/5
f 16/18/3 13/15/3 24/30/3 25/31/3
f 22/26/2 19/21/2 30/38/2 29/35/2
f 12/14/3 11/13/3 14/16/3 15/17/3
f 11/13/3 13/15/3 16/18/3 14/16/3
f 18/20/2 21/24/2 23/28/2 26/32/2
f 20/22/6 22/27/6 15/17/6 14/16/6
f 18/20/2 17/19/2 20/23/2 21/24/2
f 17/19/2 19/21/2 22/26/2 20/23/2
f 24/30/4 26/32/4 23/28/4 25/31/4
f 21/25/7 16/18/7 25/31/7 23/29/7
f 22/27/7 29/36/7 27/33/7 15/17/7
f 30/39/1 28/34/1 27/33/1 29/37/1
f 12/14/3 15/17/3 27/33/3 28/34/3
o Cube.002
v -0.400000 -0.581121 0.460000
v -0.400000 -1.000000 0.460000
v -0.400000 -0.581121 0.860000
v -0.400000 -1.000000 0.860000
v -0.800000 -0.581121 0.460000
v -0.800000 -1.000000 0.460000
v -0.800000 -0.581121 0.860000
v -0.800000 -1.000000 0.860000
v -0.400000 -0.450889 0.660000
v -0.800000 -0.450889 0.660000
v -0.380000 -0.450889 0.660000
v -0.380000 -0.581121 0.860000
v -0.380000 -0.581121 0.460000
v -0.380000 -0.430609 0.660000
v -0.380000 -0.560841 0.860000
v -0.380000 -0.560841 0.460000
v -0.820000 -0.450889 0.660000
v -0.820000 -0.581121 0.460000
v -0.820000 -0.581121 0.860000
v -0.820000 -0.430609 0.660000
v -0.820000 -0.560841 0.460000
v -0.820000 -0.560841 0.860000
v -0.820000 -0.560841 0.445000
v -0.380000 -0.581121 0.445000
v -0.380000 -0.560841 0.445000
v -0.820000 -0.581121 0.445000
v -0.380000 -0.560841 0.875000
v -0.380000 -0.581121 0.875000
v -0.820000 -0.560841 0.875000
v -0.820000 -0.581121 0.875000
vn -0.0000 -0.0000 1.0000
vn -1.0000 -0.0000 -0.0000
vn 1.0000 -0.0000 -0.0000
vn -0.0000 -0.0000 -1.0000
vn -0.0000 0.8380 -0.5457
vn -0.0000 0.8380 0.5457
vn -0.0000 1.0000 -0.0000
vt 0.625000 0.500000
vt 0.375000 0.500000
vt 0.625000 0.750000
vt 0.375000 0.750000
vt 0.625000 0.250000
vt 0.375000 0.250000
vt 0.625000 1.000000
vt 0.625000 0.000000
vt 0.375000 1.000000
vt 0.375000 0.000000
vt 0.625000 0.625000
vt 0.625000 0.125000
vt 0.625000 0.625000
vt 0.625000 0.750000
vt 0.625000 0.500000
vt 0.625000 0.625000
vt 0.625000 0.750000
vt 0.625000 0.500000
vt 0.625000 0.125000
vt 0.625000 0.250000
vt 0.625000 0.000000
vt 0.875000 0.625000
vt 0.625000 0.125000
vt 0.625000 0.250000
vt 0.875000 0.500000
vt 0.625000 0.000000
vt 0.875000 0.750000
vt 0.625000 0.250000
vt 0.875000 0.500000
vt 0.625000 0.500000
vt 0.625000 0.500000
vt 0.625000 0.250000
vt 0.625000 0.750000
vt 0.625000 0.750000
vt 0.625000 0.000000
vt 0.875000 0.750000
vt 0.625000 1.000000
vt 0.625000 0.000000
vt 0.625000 1.000000
s 0
usemtl Material.002
f 34/43/8 33/42/8 37/46/8 38/48/8
f 38/49/9 37/47/9 40/51/9 35/44/9 36/45/9
f 32/41/10 31/40/10 39/50/10 33/42/10 34/43/10
f 36/45/11 35/44/11 31/40/11 32/41/11
f 51/64/12 50/61/12 44/55/12 46/57/12
f 46/57/10 43/54/10 54/69/10 55/70/10
f 52/65/9 49/60/9 60/77/9 59/74/9
f 42/53/10 41/52/10 44/55/10 45/56/10
f 41/52/10 43/54/10 46/57/10 44/55/10
f 48/59/9 51/63/9 53/67/9 56/71/9
f 50/61/13 52/66/13 45/56/13 44/55/13
f 48/59/9 47/58/9 50/62/9 51/63/9
f 47/58/9 49/60/9 52/65/9 50/62/9
f 54/69/11 56/71/11 53/67/11 55/70/11
f 51/64/14 46/57/14 55/70/14 53/68/14
f 52/66/14 59/75/14 57/72/14 45/56/14
f 60/78/8 58/73/8 57/72/8 59/76/8
f 42/53/10 45/56/10 57/72/10 58/73/10
o Cube.003
v -0.446502 -0.581121 -0.671972
v -0.446502 -1.000000 -0.671972
v -0.446502 -0.581121 -0.271972
v -0.446502 -1.000000 -0.271972
v -0.846502 -0.581121 -0.671972
v -0.846502 -1.000000 -0.671972
v -0.846502 -0.581121 -0.271972
v -0.846502 -1.000000 -0.271972
v -0.446502 -0.450889 -0.471972
v -0.846502 -0.450889 -0.471972
v -0.426502 -0.450889 -0.471972
v -0.426502 -0.581121 -0.271972
v -0.426502 -0.581121 -0.671972
v -0.426502 -0.430609 -0.471972
v -0.426502 -0.560841 -0.271972
v -0.426502 -0.560841 -0.671972
v -0.866502 -0.450889 -0.471972
v -0.866502 -0.581121 -0.671972
v -0.866502 -0.581121 -0.271972
v -0.866502 -0.430609 -0.471972
v -0.866502 -0.560841 -0.671972
v -0.866502 -0.560841 -0.271972
v -0.866502 -0.560841 -0.686972
v -0.426502 -0.581121 -0.686972
v -0.426502 -0.560841 -0.686972
v -0.866502 -0.581121 -0.686972
v -0.426502 -0.560841 -0.256972
v -0.426502 -0.581121 -0.256972
v -0.866502 -0.560841 -0.256972
v -0.866502 -0.581121 -0.256972
vn -0.0000 -0.0000 1.0000
vn -1.0000 -0.0000 -0.0000
vn 1.0000 -0.0000 -0.0000
vn -0.0000 -0.0000 -1.0000
vn -0.0000 0.8380 -0.5457
vn -0.0000 0.8380 0.5457
vn -0.0000 1.0000 -0.0000
vt 0.625000 0.500000
vt 0.375000 0.500000
vt 0.625000 0.750000
vt 0.375000 0.750000
vt 0.625000 0.250000
vt 0.375000 0.250000
vt 0.625000 1.000000
vt 0.625000 0.000000
vt 0.375000 1.000000
vt 0.375000 0.000000
vt 0.625000 0.625000
vt 0.625000 0.125000
vt 0.625000 0.625000
vt 0.625000 0.750000
vt 0.625000 0.500000
vt 0.625000 0.625000
vt 0.625000 0.750000
vt 0.625000 0.500000
vt 0.625000 0.125000
vt 0.625000 0.250000
vt 0.625000 0.000000
vt 0.875000 0.625000
vt 0.625000 0.125000
vt 0.625000 0.250000
vt 0.875000 0.500000
vt 0.625000 0.000000
vt 0.875000 0.750000
vt 0.625000 0.250000
vt 0.875000 0.500000
vt 0.625000 0.500000
vt 0.625000 0.500000
vt 0.625000 0.250000
vt 0.625000 0.750000
vt 0.625000 0.750000
vt 0.625000 0.000000
vt 0.875000 0.750000
vt 0.625000 1.000000
vt 0.625000 0.000000
vt 0.625000 1.000000
s 0
usemtl Material.003
f 64/82/15 63/81/15 67/85/15 68/87/15
f 68/88/16 67/86/16 70/90/16 65/83/16 66/84/16
f 62/80/17 61/79/17 69/89/17 63/81/17 64/82/17
f 66/84/18 65/83/18 61/79/18 62/80/18
f 81/103/19 80/100/19 74/94/19 76/96/19
f 76/96/17 73/93/17 84/108/17 85/109/17
f 82/104/16 79/99/16 90/116/16 89/113/16
f 72/92/17 71/91/17 74/94/17 75/95/17
f 71/91/17 73/93/17 76/96/17 74/94/17
f 78/98/16 81/102/16 83/106/16 86/110/16
f 80/100/20 82/105/20 75/95/20 74/94/20
f 78/98/16 77/97/16 80/101/16 81/102/16
f 77/97/16 79/99/16 82/104/16 80/101/16
f 84/108/18 86/110/18 83/106/18 85/109/18
f 81/103/21 76/96/21 85/109/21 83/107/21
f 82/105/21 89/114/21 87/111/21 75/95/21
f 90/117/15 88/112/15 87/111/15 89/115/15
f 72/92/17 75/95/17 87/111/17 88/112/17
o Cube.004
v 0.577298 -0.581121 -0.501157
v 0.577298 -1.000000 -0.501157
v 0.577298 -0.581121 -0.101157
v 0.577298 -1.000000 -0.101157
v 0.177298 -0.581121 -0.501157
v 0.177298 -1.000000 -0.501157
v 0.177298 -0.581121 -0.101157
v 0.177298 -1.000000 -0.101157
v 0.577298 -0.450889 -0.301157
v 0.177298 -0.450889 -0.301157
v 0.597298 -0.450889 -0.301157
v 0.597298 -0.581121 -0.101157
v 0.597298 -0.581121 -0.501157
v 0.597298 -0.430609 -0.301157
v 0.597298 -0.560841 -0.101157
v 0.597298 -0.560841 -0.501157
v 0.157298 -0.450889 -0.301157
v 0.157298 -0.581121 -0.501157
v 0.157298 -0.581121 -0.101157
v 0.157298 -0.430609 -0.301157
v 0.157298 -0.560841 -0.501157
v 0.157298 -0.560841 -0.101157
v 0.157298 -0.560841 -0.516157
v 0.597298 -0.581121 -0.516157
v 0.597298 -0.560841 -0.516157
v 0.157298 -0.581121 -0.516157
v 0.597298 -0.560841 -0.086157
v 0.597298 -0.581121 -0.086157
v 0.157298 -0.560841 -0.086157
v 0.157298 -0.581121 -0.086157
vn -0.0000 -0.0000 1.0000
vn -1.0000 -0.0000 -0.0000
vn 1.0000 -0.0000 -0.0000
vn -0.0000 -0.0000 -1.0000
vn -0.0000 0.8380 -0.5457
vn -0.0000 0.8380 0.5457
vn -0.0000 1.0000 -0.0000
vt 0.625000 0.500000
vt 0.375000 0.500000
vt 0.625000 0.750000
vt 0.375000 0.750000
vt 0.625000 0.250000
vt 0.375000 0.250000
vt 0.625000 1.000000
vt 0.625000 0.000000
vt 0.375000 1.000000
vt 0.375000 0.000000
vt 0.625000 0.625000
vt 0.625000 0.125000
vt 0.625000 0.625000
vt 0.625000 0.750000
vt 0.625000 0.500000
vt 0.625000 0.625000
vt 0.625000 0.750000
vt 0.625000 0.500000
vt 0.625000 0.125000
vt 0.625000 0.250000
vt 0.625000 0.000000
vt 0.875000 0.625000
vt 0.625000 0.125000
vt 0.625000 0.250000
vt 0.875000 0.500000
vt 0.625000 0.000000
vt 0.875000 0.750000
vt 0.625000 0.250000
vt 0.875000 0.500000
vt 0.625000 0.500000
vt 0.625000 0.500000
vt 0.625000 0.250000
vt 0.625000 0.750000
vt 0.625000 0.750000
vt 0.625000 0.000000
vt 0.875000 0.750000
vt 0.625000 1.000000
vt 0.625000 0.000000
vt 0.625000 1.000000
s 0
usemtl Material.004
f 94/121/22 93/120/22 97/124/22 98/126/22
f 98/127/23 97/125/23 100/129/23 95/122/23 96/123/23
f 92/119/24 91/118/24 99/128/24 93/120/24 94/121/24
f 96/123/25 95/122/25 91/118/25 92/119/25
f 111/142/26 110/139/26 104/133/26 106/135/26
f 106/135/24 103/132/24 114/147/24 115/148/24
f 112/143/23 109/138/23 120/155/23 119/152/23
f 102/131/24 101/130/24 104/133/24 105/134/24
f 101/130/24 103/132/24 106/135/24 104/133/24
f 108/137/23 111/141/23 113/145/23 116/149/23
f 110/139/27 112/144/27 105/134/27 104/133/27
f 108/137/23 107/136/23 110/140/23 111/141/23
f 107/136/23 109/138/23 112/143/23 110/140/23
f 114/147/25 116/149/25 113/145/25 115/148/25
f 111/142/28 106/135/28 115/148/28 113/146/28
f 112/144/28 119/153/28 117/150/28 105/134/28
f 120/156/22 118/151/22 117/150/22 119/154/22
f 102/131/24 105/134/24 117/150/24 118/151/24
o Cube.007
v 0.800000 -0.581121 0.460000
v 0.800000 -1.000000 0.460000
v 0.800000 -0.581121 0.860000
v 0.800000 -1.000000 0.860000
v 0.400000 -0.581121 0.460000
v 0.400000 -1.000000 0.460000
v 0.400000 -0.581121 0.860000
v 0.400000 -1.000000 0.860000
v 0.800000 -0.450889 0.660000
v 0.400000 -0.450889 0.660000
v 0.820000 -0.450889 0.660000
v 0.820000 -0.581121 0.860000
v 0.820000 -0.581121 0.460000
v 0.820000 -0.430609 0.660000
v 0.820000 -0.560841 0.860000
v 0.820000 -0.560841 0.460000
v 0.380000 -0.450889 0.660000
v 0.380000 -0.581121 0.460000
v 0.380000 -0.581121 0.860000
v 0.380000 -0.430609 0.660000
v 0.380000 -0.560841 0.460000
v 0.380000 -0.560841 0.860000
v 0.380000 -0.560841 0.445000
v 0.820000 -0.581121 0.445000
v 0.820000 -0.560841 0.445000
v 0.380000 -0.581121 0.445000
v 0.820000 -0.560841 0.875000
v 0.820000 -0.581121 0.875000
v 0.380000 -0.560841 0.875000
v 0.380000 -0.581121 0.875000
vn -0.0000 -0.0000 1.0000
vn -1.0000 -0.0000 -0.0000
vn 1.0000 -0.0000 -0.0000
vn -0.0000 -0.0000 -1.0000
vn -0.0000 0.8380 -0.5457
vn -0.0000 0.8380 0.5457
vn -0.0000 1.0000 -0.0000
vt 0.625000 0.500000
vt 0.375000 0.500000
vt 0.625000 0.750000
vt 0.375000 0.750000
vt 0.625000 0.250000
vt 0.375000 0.250000
vt 0.625000 1.000000
vt 0.625000 0.000000
vt 0.375000 1.000000
vt 0.375000 0.000000
vt 0.625000 0.625000
vt 0.625000 0.125000
vt 0.625000 0.625000
vt 0.625000 0.750000
vt 0.625000 0.500000
vt 0.625000 0.625000
vt 0.625000 0.750000
vt 0.625000 0.500000
vt 0.625000 0.125000
vt 0.625000 0.250000
vt 0.625000 0.000000
vt 0.875000 0.625000
vt 0.625000 0.125000
vt 0.625000 0.250000
vt 0.875000 0.500000
vt 0.625000 0.000000
vt 0.875000 0.750000
vt 0.625000 0.250000
vt 0.875000 0.500000
vt 0.625000 0.500000
vt 0.625000 0.500000
vt 0.625000 0.250000
vt 0.625000 0.750000
vt 0.625000 0.750000
vt 0.625000 0.000000
vt 0.875000 0.750000
vt 0.625000 1.000000
vt 0.625000 0.000000
vt 0.625000 1.000000
s 0
usemtl Material.007
f 124/160/29 123/159/29 127/163/29 128/165/29
f 128/166/30 127/164/30 130/168/30 125/161/30 126/162/30
f 122/158/31 121/157/31 129/167/31 123/159/31 124/160/31
f 126/162/32 125/161/32 121/157/32 122/158/32
f 141/181/33 140/178/33 134/172/33 136/174/33
f 136/174/31 133/171/31 144/186/31 145/187/31
f 142/182/30 139/177/30 150/194/30 149/191/30
f 132/170/31 131/169/31 134/172/31 135/173/31
f 131/169/31 133/171/31 136/174/31 134/172/31
f 138/176/30 141/180/30 143/184/30 146/188/30
f 140/178/34 142/183/34 135/173/34 134/172/34
f 138/176/30 137/175/30 140/179/30 141/180/30
f 137/175/30 139/177/30 142/182/30 140/179/30
f 144/186/32 146/188/32 143/184/32 145/187/32
f 141/181/35 136/174/35 145/187/35 143/185/35
f 142/183/35 149/192/35 147/189/35 135/173/35
f 150/195/29 148/190/29 147/189/29 149/193/29
f 132/170/31 135/173/31 147/189/31 148/190/31
