# Blender 3.5.0
# www.blender.org
mtllib huts.mtl
o Cube.001
v 0.507148 -1.000000 -0.103845
v 0.507148 -0.600000 -0.256882
v 0.507148 -1.000000 -0.078134
v 0.107148 -1.000000 -0.103845
v 0.107148 -0.600000 -0.256882
v 0.107148 -1.000000 -0.078134
v 0.107148 -1.000000 -0.569346
v 0.107148 -0.600000 -0.416309
v 0.107148 -1.000000 -0.595057
v 0.507148 -1.000000 -0.569346
v 0.507148 -0.600000 -0.416309
v 0.507148 -1.000000 -0.595057
v 0.507148 -0.640736 -0.256882
v 0.107148 -0.640736 -0.256882
v 0.107148 -0.640736 -0.416309
v 0.507148 -0.640736 -0.416309
vn -0.0000 0.4080 0.9130
vn -0.0000 -1.0000 -0.0000
vn -0.0000 0.4080 -0.9130
vn -0.0000 -0.3919 -0.9200
vn -0.0000 1.0000 -0.0000
vn -1.0000 -0.0000 -0.0000
vn 1.0000 -0.0000 -0.0000
vn -0.0000 -0.3919 0.9200
vt 0.375000 0.500000
vt 0.625000 0.750000
vt 0.375000 0.750000
vt 0.125000 0.500000
vt 0.625000 1.000000
vt 0.125000 0.750000
vt 0.375000 1.000000
vt 0.375000 0.500000
vt 0.625000 0.750000
vt 0.375000 0.750000
vt 0.125000 0.500000
vt 0.625000 1.000000
vt 0.125000 0.750000
vt 0.375000 1.000000
vt 0.000000 0.000000
vt 0.625000 0.750000
vt 0.625000 1.000000
vt 0.625000 0.750000
vt 0.000000 0.000000
vt 0.625000 1.000000
vt 0.000000 0.000000
s 0
usemtl Material.001
f 3/3/1 2/2/1 5/5/1 6/7/1
f 4/4/2 1/1/2 3/3/2 6/6/2
f 4/4/4 14/17/4 13/16/4 1/1/4
f 13/16/5 16/20/5 15/18/5 14/17/5
f 2/2/7 3/3/7 1/1/7 13/15/7
f 6/7/6 5/5/6 14/17/6 4/4/6
f 11/12/7 2/2/7 13/16/7 16/21/7
f 8/9/6 15/19/6 14/17/6 5/5/6
f 2/2/5 11/12/5 8/9/5 5/5/5
usemtl Material.002
f 9/10/3 8/9/3 11/12/3 12/14/3
f 10/11/2 7/8/2 9/10/2 12/13/2
f 8/9/6 9/10/6 7/8/6 15/19/6
f 10/11/7 12/14/7 11/12/7 16/21/7
f 10/11/8 16/21/8 15/18/8 7/8/8
o Cube.002
v 0.858460 -1.000000 0.605612
v 0.858460 -0.600000 0.452575
v 0.858460 -1.000000 0.631323
v 0.458460 -1.000000 0.605612
v 0.458460 -0.600000 0.452575
v 0.458460 -1.000000 0.631323
v 0.458460 -1.000000 0.140110
v 0.458460 -0.600000 0.293147
v 0.458460 -1.000000 0.114400
v 0.858460 -1.000000 0.140110
v 0.858460 -0.600000 0.293147
v 0.858460 -1.000000 0.114400
v 0.858460 -0.640736 0.452575
v 0.458460 -0.640736 0.452575
v 0.458460 -0.640736 0.293147
v 0.858460 -0.640736 0.293147
vn -0.0000 0.4080 0.9130
vn -0.0000 -1.0000 -0.0000
vn -0.0000 0.4080 -0.9130
vn -0.0000 -0.3919 -0.9200
vn -0.0000 1.0000 -0.0000
vn -1.0000 -0.0000 -0.0000
vn 1.0000 -0.0000 -0.0000
vn -0.0000 -0.3919 0.9200
vt 0.375000 0.500000
vt 0.625000 0.750000
vt 0.375000 0.750000
vt 0.125000 0.500000
vt 0.625000 1.000000
vt 0.125000 0.750000
vt 0.375000 1.000000
vt 0.375000 0.500000
vt 0.625000 0.750000
vt 0.375000 0.750000
vt 0.125000 0.500000
vt 0.625000 1.000000
vt 0.125000 0.750000
vt 0.375000 1.000000
vt 0.000000 0.000000
vt 0.625000 0.750000
vt 0.625000 1.000000
vt 0.625000 0.750000
vt 0.000000 0.000000
vt 0.625000 1.000000
vt 0.000000 0.000000
s 0
usemtl Material.003
f 19/24/9 18/23/9 21/26/9 22/28/9
f 20/25/10 17/22/10 19/24/10 22/27/10
f 20/25/12 30/38/12 29/37/12 17/22/12
f 29/37/13 32/41/13 31/39/13 30/38/13
f 18/23/15 19/24/15 17/22/15 29/36/15
f 22/28/14 21/26/14 30/38/14 20/25/14
f 27/33/15 18/23/15 29/37/15 32/42/15
f 24/30/14 31/40/14 30/38/14 21/26/14
f 18/23/13 27/33/13 24/30/13 21/26/13
usemtl Material.004
f 25/31/11 24/30/11 27/33/11 28/35/11
f 26/32/10 23/29/10 25/31/10 28/34/10
f 24/30/14 25/31/14 23/29/14 31/40/14
f 26/32/15 28/35/15 27/33/15 32/42/15
f 26/32/16 32/42/16 31/39/16 23/29/16
o Cube.003
v -0.029973 -1.000000 0.599885
v -0.029973 -0.600000 0.446847
v -0.029973 -1.000000 0.625595
v -0.429973 -1.000000 0.599885
v -0.429973 -0.600000 0.446847
v -0.429973 -1.000000 0.625595
v -0.429973 -1.000000 0.134383
v -0.429973 -0.600000 0.287420
v -0.429973 -1.000000 0.108672
v -0.029973 -1.000000 0.134383
v -0.029973 -0.600000 0.287420
v -0.029973 -1.000000 0.108672
v -0.029973 -0.640736 0.446847
v -0.429973 -0.640736 0.446847
v -0.429973 -0.640736 0.287420
v -0.029973 -0.640736 0.287420
vn -0.0000 0.4080 0.9130
vn -0.0000 -1.0000 -0.0000
vn -0.0000 0.4080 -0.9130
vn -0.0000 -0.3919 -0.9200
vn -0.0000 1.0000 -0.0000
vn -1.0000 -0.0000 -0.0000
vn 1.0000 -0.0000 -0.0000
vn -0.0000 -0.3919 0.9200
vt 0.375000 0.500000
vt 0.625000 0.750000
vt 0.375000 0.750000
vt 0.125000 0.500000
vt 0.625000 1.000000
vt 0.125000 0.750000
vt 0.375000 1.000000
vt 0.375000 0.500000
vt 0.625000 0.750000
vt 0.375000 0.750000
vt 0.125000 0.500000
vt 0.625000 1.000000
vt 0.125000 0.750000
vt 0.375000 1.000000
vt 0.000000 0.000000
vt 0.625000 0.750000
vt 0.625000 1.000000
vt 0.625000 0.750000
vt 0.000000 0.000000
vt 0.625000 1.000000
vt 0.000000 0.000000
s 0
usemtl Material.005
f 35/45/17 34/44/17 37/47/17 38/49/17
f 36/46/18 33/43/18 35/45/18 38/48/18
f 36/46/20 46/59/20 45/58/20 33/43/20
f 45/58/21 48/62/21 47/60/21 46/59/21
f 34/44/23 35/45/23 33/43/23 45/57/23
f 38/49/22 37/47/22 46/59/22 36/46/22
f 43/54/23 34/44/23 45/58/23 48/63/23
f 40/51/22 47/61/22 46/59/22 37/47/22
f 34/44/21 43/54/21 40/51/21 37/47/21
usemtl Material.006
f 41/52/19 40/51/19 43/54/19 44/56/19
f 42/53/18 39/50/18 41/52/18 44/55/18
f 40/51/22 41/52/22 39/50/22 47/61/22
f 42/53/23 44/56/23 43/54/23 48/63/23
f 42/53/24 48/63/24 47/60/24 39/50/24
o Cube.004
v -0.381285 -1.000000 -0.109572
v -0.381285 -0.600000 -0.262609
v -0.381285 -1.000000 -0.083862
v -0.781285 -1.000000 -0.109572
v -0.781285 -0.600000 -0.262609
v -0.781285 -1.000000 -0.083862
v -0.781285 -1.000000 -0.575074
v -0.781285 -0.600000 -0.422037
v -0.781285 -1.000000 -0.600785
v -0.381285 -1.000000 -0.575074
v -0.381285 -0.600000 -0.422037
v -0.381285 -1.000000 -0.600784
v -0.381285 -0.640736 -0.262609
v -0.781285 -0.640736 -0.262609
v -0.781285 -0.640736 -0.422037
v -0.381285 -0.640736 -0.422037
vn -0.0000 0.4080 0.9130
vn -0.0000 -1.0000 -0.0000
vn -0.0000 0.4080 -0.9130
vn -0.0000 -0.3919 -0.9200
vn -0.0000 1.0000 -0.0000
vn -1.0000 -0.0000 -0.0000
vn 1.0000 -0.0000 -0.0000
vn -0.0000 -0.3919 0.9200
vt 0.375000 0.500000
vt 0.625000 0.750000
vt 0.375000 0.750000
vt 0.125000 0.500000
vt 0.625000 1.000000
vt 0.125000 0.750000
vt 0.375000 1.000000
vt 0.375000 0.500000
vt 0.625000 0.750000
vt 0.375000 0.750000
vt 0.125000 0.500000
vt 0.625000 1.000000
vt 0.125000 0.750000
vt 0.375000 1.000000
vt 0.000000 0.000000
vt 0.625000 0.750000
vt 0.625000 1.000000
vt 0.625000 0.750000
vt 0.000000 0.000000
vt 0.625000 1.000000
vt 0.000000 0.000000
s 0
usemtl Material.007
f 51/66/25 50/65/25 53/68/25 54/70/25
f 52/67/26 49/64/26 51/66/26 54/69/26
f 52/67/28 62/80/28 61/79/28 49/64/28
f 61/79/29 64/83/29 63/81/29 62/80/29
f 50/65/31 51/66/31 49/64/31 61/78/31
f 54/70/30 53/68/30 62/80/30 52/67/30
f 59/75/31 50/65/31 61/79/31 64/84/31
f 56/72/30 63/82/30 62/80/30 53/68/30
f 50/65/29 59/75/29 56/72/29 53/68/29
usemtl Material.008
f 57/73/27 56/72/27 59/75/27 60/77/27
f 58/74/26 55/71/26 57/73/26 60/76/26
f 56/72/30 57/73/30 55/71/30 63/82/30
f 58/74/31 60/77/31 59/75/31 64/84/31
f 58/74/32 64/84/32 63/81/32 55/71/32
