# Blender 4.0.1
# www.blender.org
mtllib buildingOne.mtl
o Grid
v -0.600000 -1.000000 0.800000
v -0.400000 -1.000000 0.800000
v 0.400000 -1.000000 0.800000
v 0.600000 -1.000000 0.800000
v -0.800000 -1.000000 0.600000
v -0.400000 -1.000000 0.600000
v 0.400000 -1.000000 0.600000
v 0.800000 -1.000000 0.600000
v -0.800000 -1.000000 0.400000
v -0.600000 -1.000000 0.400000
v -0.200000 -1.000000 0.400000
v 0.000000 -1.000000 0.400000
v 0.200000 -1.000000 0.400000
v 0.600000 -1.000000 0.400000
v 0.800000 -1.000000 0.400000
v -0.400000 -1.000000 0.200000
v -0.400000 1.000000 0.000000
v 0.400000 1.000000 0.200000
v 0.200000 1.000000 0.200000
v 0.400000 -1.000000 0.200000
v -0.400000 -1.000000 0.000000
v 0.000000 1.000000 0.200000
v -0.400000 1.000000 0.200000
v -0.200000 1.000000 0.200000
v 0.400000 -1.000000 0.000000
v -0.400000 -1.000000 -0.200000
v 0.200000 1.000000 0.400000
v -0.200000 1.000000 0.400000
v 0.000000 1.000000 0.400000
v 0.400000 -1.000000 -0.200000
v -0.800000 -1.000000 -0.400000
v -0.600000 -1.000000 -0.400000
v -0.200000 -1.000000 -0.400000
v 0.000000 -1.000000 -0.400000
v 0.200000 -1.000000 -0.400000
v 0.600000 -1.000000 -0.400000
v 0.800000 -1.000000 -0.400000
v -0.800000 -1.000000 -0.600000
v -0.400000 -1.000000 -0.600000
v 0.400000 -1.000000 -0.600000
v 0.800000 -1.000000 -0.600000
v -0.600000 -1.000000 -0.800000
v -0.400000 -1.000000 -0.800000
v 0.400000 -1.000000 -0.800000
v 0.600000 -1.000000 -0.800000
v -0.600000 0.000000 0.800000
v -0.450000 0.000000 0.750000
v 0.600000 0.000000 0.800000
v 0.450000 0.000000 0.750000
v -0.800000 0.000000 0.600000
v -0.400000 0.000000 0.600000
v 0.400000 0.000000 0.600000
v 0.800000 0.000000 0.600000
v -0.750000 0.000000 0.450000
v -0.600000 0.000000 0.400000
v 0.600000 0.000000 0.400000
v 0.750000 0.000000 0.450000
v -0.600000 0.000000 -0.400000
v -0.750000 0.000000 -0.450000
v 0.600000 0.000000 -0.400000
v 0.750000 0.000000 -0.450000
v -0.800000 0.000000 -0.600000
v -0.400000 0.000000 -0.600000
v 0.400000 0.000000 -0.600000
v 0.800000 0.000000 -0.600000
v -0.600000 0.000000 -0.800000
v -0.450000 0.000000 -0.750000
v 0.450000 0.000000 -0.750000
v 0.600000 0.000000 -0.800000
v 0.400000 -1.000000 0.600000
v 0.600000 -1.000000 0.400000
v 0.400000 -1.000000 0.200050
v 0.200050 -1.000000 0.400000
v 0.600000 0.000000 0.400000
v 0.400000 0.000000 0.600000
v -0.600000 -1.000000 0.400000
v -0.400000 -1.000000 0.600000
v -0.200050 -1.000000 0.400000
v -0.400000 -1.000000 0.200050
v -0.400000 0.000000 0.600000
v -0.600000 0.000000 0.400000
v -0.400000 -1.000000 -0.600000
v -0.600000 -1.000000 -0.400000
v -0.400000 -1.000000 -0.200050
v -0.200050 -1.000000 -0.400000
v -0.600000 0.000000 -0.400000
v -0.400000 0.000000 -0.600000
v 0.600000 -1.000000 -0.400000
v 0.400000 -1.000000 -0.600000
v 0.200050 -1.000000 -0.400000
v 0.400000 -1.000000 -0.200050
v 0.400000 0.000000 -0.600000
v 0.600000 0.000000 -0.400000
v -0.600000 -1.000000 0.800000
v -0.800000 -1.000000 0.600000
v 0.800000 -1.000000 0.600000
v 0.600000 -1.000000 0.800000
v -0.800000 -1.000000 -0.600000
v -0.600000 -1.000000 -0.800000
v 0.600000 -1.000000 -0.800000
v 0.800000 -1.000000 -0.600000
v -0.800000 0.000000 0.600000
v -0.600000 0.000000 0.800000
v 0.600000 0.000000 0.800000
v 0.800000 0.000000 0.600000
v -0.600000 0.000000 -0.800000
v -0.800000 0.000000 -0.600000
v 0.800000 0.000000 -0.600000
v 0.600000 0.000000 -0.800000
v -0.400000 0.000000 0.800000
v -0.800000 0.000000 0.400000
v -0.579289 0.000000 0.750000
v -0.450000 0.000000 0.620711
v -0.750000 0.000000 0.579289
v -0.620711 0.000000 0.450000
v 0.400000 0.000000 0.800000
v 0.579289 0.000000 0.750000
v 0.800000 0.000000 0.400000
v 0.450000 0.000000 0.620711
v 0.750000 0.000000 0.579289
v 0.620711 0.000000 0.450000
v 0.800000 0.000000 -0.400000
v 0.400000 0.000000 -0.800000
v 0.620711 0.000000 -0.450000
v 0.750000 0.000000 -0.579289
v 0.450000 0.000000 -0.620711
v 0.579289 0.000000 -0.750000
v -0.800000 0.000000 -0.400000
v -0.620711 0.000000 -0.450000
v -0.400000 0.000000 -0.800000
v -0.750000 0.000000 -0.579289
v -0.450000 0.000000 -0.620711
v -0.579289 0.000000 -0.750000
v -0.620711 -0.050000 -0.450000
v -0.450000 -0.050000 -0.620711
v -0.750000 -0.050000 -0.579289
v -0.579289 -0.050000 -0.750000
v -0.579289 -0.050000 0.750000
v -0.750000 -0.050000 0.579289
v -0.450000 -0.050000 0.620711
v -0.620711 -0.050000 0.450000
v 0.579289 -0.050000 0.750000
v 0.750000 -0.050000 0.579289
v 0.450000 -0.050000 0.620711
v 0.620711 -0.050000 0.450000
v 0.620711 -0.050000 -0.450000
v 0.450000 -0.050000 -0.620711
v 0.750000 -0.050000 -0.579289
v 0.579289 -0.050000 -0.750000
v -0.450000 -0.050000 0.750000
v -0.750000 -0.050000 0.450000
v 0.450000 -0.050000 0.750000
v 0.750000 -0.050000 0.450000
v 0.750000 -0.050000 -0.450000
v 0.450000 -0.050000 -0.750000
v -0.750000 -0.050000 -0.450000
v -0.450000 -0.050000 -0.750000
v -0.200000 0.000000 0.400000
v 0.200000 0.000000 0.400000
v -0.400000 0.000000 0.200000
v 0.400000 0.000000 0.200000
v -0.400000 0.000000 -0.200000
v 0.400000 0.000000 -0.200000
v -0.200000 0.000000 -0.400000
v 0.200000 0.000000 -0.400000
v 0.400000 0.000000 0.200050
v 0.200050 0.000000 0.400000
v -0.200050 0.000000 0.400000
v -0.400000 0.000000 0.200050
v -0.400000 0.000000 -0.200050
v -0.200050 0.000000 -0.400000
v 0.200050 0.000000 -0.400000
v 0.400000 0.000000 -0.200050
v -0.200000 1.000000 0.000000
v 0.000000 1.000000 0.000000
v 0.200000 1.000000 0.000000
v 0.400000 1.000000 0.000000
v -0.400000 1.000000 -0.200000
v -0.200000 1.000000 -0.200000
v 0.000000 1.000000 -0.200000
v 0.200000 1.000000 -0.200000
v 0.400000 1.000000 -0.200000
v -0.200000 1.000000 -0.400000
v 0.000000 1.000000 -0.400000
v 0.200000 1.000000 -0.400000
v 0.400000 1.000000 0.200050
v 0.200050 1.000000 0.400000
v -0.200050 1.000000 0.400000
v -0.400000 1.000000 0.200050
v -0.400000 1.000000 -0.200050
v -0.200050 1.000000 -0.400000
v 0.200050 1.000000 -0.400000
v 0.400000 1.000000 -0.200050
v 0.200000 0.000000 -0.350000
v 0.200000 -0.917764 -0.350000
v 0.000000 -0.917764 -0.350000
v 0.000000 0.000000 -0.350000
v -0.200000 0.000000 -0.350000
v -0.200000 -0.917764 -0.350000
v -0.200000 0.917763 -0.350000
v 0.200000 0.917763 -0.350000
v 0.000000 0.917763 -0.350000
v -0.350000 0.000000 -0.200000
v -0.350000 -0.917764 -0.200000
v -0.350000 -0.917764 0.000000
v -0.350000 0.000000 0.000000
v -0.350000 -0.917764 0.200000
v -0.350000 0.000000 0.200000
v -0.350000 0.917763 -0.200000
v -0.350000 0.917763 0.000000
v -0.350000 0.917763 0.200000
v 0.000000 -0.917764 0.350000
v -0.200000 -0.917764 0.350000
v 0.200000 -0.917764 0.350000
v 0.200000 0.917763 0.350000
v 0.000000 0.917763 0.350000
v -0.200000 0.917763 0.350000
v -0.200000 0.000000 0.350000
v 0.000000 0.000000 0.350000
v 0.200000 0.000000 0.350000
v 0.350000 -0.917764 0.200000
v 0.350000 -0.917764 0.000000
v 0.350000 0.000000 -0.200000
v 0.350000 -0.917764 -0.200000
v 0.350000 0.000000 0.200000
v 0.350000 0.000000 0.000000
v 0.350000 0.917763 -0.200000
v 0.350000 0.917763 0.200000
v 0.350000 0.917763 0.000000
vn -0.0000 1.0000 -0.0000
vn -1.0000 -0.0000 -0.0000
vn -0.0000 -0.0000 -1.0000
vn 1.0000 -0.0000 -0.0000
vn -0.0000 -0.0000 1.0000
vn -0.0000 0.5195 -0.8545
vn -0.7071 -0.0000 -0.7071
vn -0.8545 -0.5195 -0.0000
vn 0.7071 -0.0000 -0.7071
vn 0.7071 -0.0000 0.7071
vn -0.7071 -0.0000 0.7071
vn 0.8545 0.5195 -0.0000
vn -0.8545 0.5195 -0.0000
vn -0.0000 -0.5195 0.8545
vn -0.0000 0.5195 0.8545
vn -0.0000 -0.5195 -0.8545
vn 0.8545 -0.5195 -0.0000
vt 0.000000 0.000000
vt 0.100000 0.800000
vt 0.100000 0.700000
vt 0.300000 0.900000
vt 0.200000 0.900000
vt 0.300000 0.100000
vt 0.300000 0.200000
vt 0.200000 0.100000
vt 0.300000 0.800000
vt 0.700000 0.600000
vt 0.399975 0.700000
vt 0.300000 0.600025
vt 0.300000 0.400000
vt 0.300000 0.500000
vt 0.600000 0.300000
vt 0.700000 0.600025
vt 0.600025 0.700000
vt 0.600000 0.700000
vt 0.600025 0.300000
vt 0.700000 0.399975
vt 0.300000 0.399975
vt 0.700000 0.400000
vt 0.399975 0.300000
vt 0.400000 0.700000
vt 0.800000 0.700000
vt 0.900000 0.700000
vt 0.800000 0.900000
vt 0.700000 0.900000
vt 0.200000 0.700000
vt 0.700000 0.100000
vt 0.800000 0.100000
vt 0.100000 0.300000
vt 0.100000 0.200000
vt 0.900000 0.800000
vt 0.900000 0.200000
vt 0.900000 0.300000
vt 0.200000 0.300000
vt 0.800000 0.300000
vt 0.700000 0.800000
vt 0.700000 0.200000
vt 0.700000 0.200000
vt 0.300000 0.200000
vt 0.200000 0.700000
vt 0.900000 0.200000
vt 0.200000 0.100000
vt 0.100000 0.200000
vt 0.275000 0.189645
vt 0.189645 0.275000
vt 0.125000 0.275000
vt 0.125000 0.210355
vt 0.275000 0.875000
vt 0.210355 0.875000
vt 0.810355 0.725000
vt 0.875000 0.725000
vt 0.275000 0.125000
vt 0.210355 0.125000
vt 0.789645 0.125000
vt 0.725000 0.125000
vt 0.725000 0.189645
vt 0.875000 0.275000
vt 0.875000 0.210355
vt 0.810355 0.275000
vt 0.875000 0.789645
vt 0.725000 0.810355
vt 0.725000 0.875000
vt 0.789645 0.875000
vt 0.189645 0.725000
vt 0.125000 0.725000
vt 0.125000 0.789645
vt 0.275000 0.810355
vt 0.300000 0.600000
vt 0.400000 0.300000
vt 0.500000 0.300000
vt 0.400000 0.600000
vt 0.500000 0.400000
vt 0.400000 0.400000
vt 0.600000 0.400000
vt 0.400000 0.500000
vt 0.500000 0.500000
vt 0.600000 0.500000
vt 0.700000 0.500000
vt 0.500000 0.600000
vt 0.600000 0.600000
vt 0.500000 0.700000
s 0
f 94/1/1 1/1/1 46/1/1 103/1/1
f 5/1/1 95/1/1 102/1/1 50/1/1
f 38/2/2 31/3/2 128/3/2 62/2/2
f 43/4/3 42/5/3 66/5/3 130/4/3
f 2/6/4 6/7/4 51/7/4 110/6/4
f 4/1/1 97/1/1 104/1/1 48/1/1
f 1/8/5 2/6/5 110/6/5 46/8/5
f 39/9/4 43/4/4 130/4/4 63/9/4
f 76/1/1 10/1/1 55/1/1 81/1/1
f 34/1/6 33/1/6 199/1/6 196/1/6
f 30/10/5 163/10/5 223/10/5 224/10/5
f 85/11/7 84/12/7 170/12/7 171/11/7
f 14/1/1 71/1/1 74/1/1 56/1/1
f 23/13/8 17/14/8 210/14/8 211/13/8
f 159/15/2 27/15/2 215/15/2 220/15/2
f 91/16/9 90/17/9 172/17/9 173/16/9
f 90/17/3 35/18/3 165/18/3 172/17/3
f 73/19/10 72/20/10 166/20/10 167/19/10
f 16/13/2 79/21/2 169/21/2 160/13/2
f 72/20/4 20/22/4 161/22/4 166/20/4
f 35/1/6 34/1/6 196/1/6 195/1/6
f 13/15/5 73/19/5 167/19/5 159/15/5
f 30/10/4 91/16/4 173/16/4 163/10/4
f 79/21/11 78/23/11 168/23/11 169/21/11
f 88/1/1 36/1/1 60/1/1 93/1/1
f 33/24/3 85/11/3 171/11/3 164/24/3
f 98/1/1 38/1/1 62/1/1 107/1/1
f 41/1/1 101/1/1 108/1/1 65/1/1
f 40/1/1 89/1/1 92/1/1 64/1/1
f 36/25/5 37/26/5 122/26/5 60/25/5
f 45/27/3 44/28/3 123/28/3 69/27/3
f 31/3/5 32/29/5 58/29/5 128/3/5
f 100/1/1 45/1/1 69/1/1 109/1/1
f 42/1/1 99/1/1 106/1/1 66/1/1
f 3/30/5 4/31/5 48/31/5 116/30/5
f 9/32/2 5/33/2 50/33/2 111/32/2
f 37/26/4 41/34/4 65/34/4 122/26/4
f 96/1/1 8/1/1 53/1/1 105/1/1
f 32/1/1 83/1/1 86/1/1 58/1/1
f 8/35/4 15/36/4 118/36/4 53/35/4
f 10/37/3 9/32/3 111/32/3 55/37/3
f 15/36/3 14/38/3 56/38/3 118/36/3
f 44/28/2 40/39/2 64/39/2 123/28/2
f 7/40/2 3/30/2 116/30/2 52/40/2
f 163/10/5 182/10/5 227/10/5 223/10/5
f 74/38/7 71/38/7 70/41/7 75/41/7
f 70/1/1 7/1/1 52/1/1 75/1/1
f 76/37/9 81/37/9 80/42/9 77/42/9
f 6/1/1 77/1/1 80/1/1 51/1/1
f 82/9/10 87/9/10 86/43/10 83/43/10
f 82/1/1 39/1/1 63/1/1 87/1/1
f 88/25/11 93/25/11 92/39/11 89/39/11
f 104/31/10 97/31/10 96/44/10 105/44/10
f 98/2/7 107/2/7 106/5/7 99/5/7
f 100/27/9 109/27/9 108/34/9 101/34/9
f 94/45/11 103/45/11 102/46/11 95/46/11
f 113/47/11 115/48/11 141/48/11 140/47/11
f 54/49/4 114/50/4 139/50/4 151/49/4
f 67/51/5 133/52/5 137/52/5 157/51/5
f 124/53/3 61/54/3 154/54/3 146/53/3
f 47/55/1 112/56/1 46/8/1 110/6/1
f 113/47/1 47/55/1 110/6/1 51/7/1
f 114/50/1 54/49/1 111/32/1 50/33/1
f 54/49/1 115/48/1 55/37/1 111/32/1
f 112/56/1 114/50/1 50/33/1 46/8/1
f 115/48/1 113/47/1 51/7/1 55/37/1
f 117/57/1 49/58/1 116/30/1 48/31/1
f 49/58/1 119/59/1 52/40/1 116/30/1
f 57/60/1 120/61/1 53/35/1 118/36/1
f 121/62/1 57/60/1 118/36/1 56/38/1
f 120/61/1 117/57/1 48/31/1 53/35/1
f 119/59/1 121/62/1 56/38/1 52/40/1
f 61/54/1 124/53/1 60/25/1 122/26/1
f 125/63/1 61/54/1 122/26/1 65/34/1
f 126/64/1 68/65/1 123/28/1 64/39/1
f 68/65/1 127/66/1 69/27/1 123/28/1
f 124/53/1 126/64/1 64/39/1 60/25/1
f 127/66/1 125/63/1 65/34/1 69/27/1
f 129/67/1 59/68/1 128/3/1 58/29/1
f 59/68/1 131/69/1 62/2/1 128/3/1
f 67/51/1 132/70/1 63/9/1 130/4/1
f 133/52/1 67/51/1 130/4/1 66/5/1
f 132/70/1 129/67/1 58/29/1 63/9/1
f 131/69/1 133/52/1 66/5/1 62/2/1
f 156/68/1 134/67/1 135/70/1 157/51/1 137/52/1 136/69/1
f 138/56/1 150/55/1 140/47/1 141/48/1 151/49/1 139/50/1
f 152/58/1 142/57/1 143/61/1 153/60/1 145/62/1 144/59/1
f 146/53/1 154/54/1 148/63/1 149/66/1 155/65/1 147/64/1
f 61/54/2 125/63/2 148/63/2 154/54/2
f 115/48/5 54/49/5 151/49/5 141/48/5
f 117/57/7 120/61/7 143/61/7 142/57/7
f 68/65/4 126/64/4 147/64/4 155/65/4
f 121/62/10 119/59/10 144/59/10 145/62/10
f 49/58/3 117/57/3 142/57/3 152/58/3
f 127/66/5 68/65/5 155/65/5 149/66/5
f 126/64/9 124/53/9 146/53/9 147/64/9
f 119/59/4 49/58/4 152/58/4 144/59/4
f 59/68/3 129/67/3 134/67/3 156/68/3
f 125/63/11 127/66/11 149/66/11 148/63/11
f 120/61/2 57/60/2 153/60/2 143/61/2
f 129/67/7 132/70/7 135/70/7 134/67/7
f 131/69/4 59/68/4 156/68/4 136/69/4
f 112/56/3 47/55/3 150/55/3 138/56/3
f 57/60/5 121/62/5 145/62/5 153/60/5
f 133/52/10 131/69/10 136/69/10 137/52/10
f 132/70/2 67/51/2 157/51/2 135/70/2
f 47/55/2 113/47/2 140/47/2 150/55/2
f 114/50/9 112/56/9 138/56/9 139/50/9
f 163/10/4 173/16/4 193/16/4 182/10/4
f 166/20/4 161/22/4 18/22/4 186/20/4
f 173/16/9 172/17/9 192/17/9 193/16/9
f 159/15/5 167/19/5 187/19/5 27/15/5
f 160/13/3 23/13/3 211/13/3 208/13/3
f 164/24/3 171/11/3 191/11/3 183/24/3
f 25/1/12 30/1/12 224/1/12 222/1/12
f 167/19/10 166/20/10 186/20/10 187/19/10
f 170/12/2 162/71/2 178/71/2 190/12/2
f 26/1/13 21/1/13 205/1/13 204/1/13
f 185/18/2 165/18/2 194/18/2 201/18/2
f 20/1/12 25/1/12 222/1/12 221/1/12
f 28/72/4 158/72/4 218/72/4 217/72/4
f 171/11/7 170/12/7 190/12/7 191/11/7
f 29/73/14 28/72/14 217/72/14 216/73/14
f 160/13/2 169/21/2 189/21/2 23/13/2
f 78/23/5 11/72/5 158/72/5 168/23/5
f 12/1/15 13/1/15 214/1/15 212/1/15
f 84/12/2 26/71/2 162/71/2 170/12/2
f 162/71/5 26/71/5 204/71/5 203/71/5
f 178/71/1 179/74/1 183/24/1 191/11/1 190/12/1
f 28/72/1 29/73/1 22/75/1 24/76/1
f 29/73/1 27/15/1 19/77/1 22/75/1
f 27/15/1 187/19/1 186/20/1 18/22/1 19/77/1
f 23/13/1 24/76/1 174/78/1 17/14/1
f 24/76/1 22/75/1 175/79/1 174/78/1
f 22/75/1 19/77/1 176/80/1 175/79/1
f 19/77/1 18/22/1 177/81/1 176/80/1
f 17/14/1 174/78/1 179/74/1 178/71/1
f 174/78/1 175/79/1 180/82/1 179/74/1
f 175/79/1 176/80/1 181/83/1 180/82/1
f 176/80/1 177/81/1 182/10/1 181/83/1
f 179/74/1 180/82/1 184/84/1 183/24/1
f 180/82/1 181/83/1 185/18/1 184/84/1
f 181/83/1 182/10/1 193/16/1 192/17/1 185/18/1
f 189/21/1 188/23/1 28/72/1 24/76/1 23/13/1
f 169/21/11 168/23/11 188/23/11 189/21/11
f 172/17/3 165/18/3 185/18/3 192/17/3
f 168/23/5 158/72/5 28/72/5 188/23/5
f 164/24/4 183/24/4 200/24/4 198/24/4
f 196/84/3 199/24/3 198/24/3 197/84/3
f 195/18/3 196/84/3 197/84/3 194/18/3
f 194/18/3 197/84/3 202/84/3 201/18/3
f 197/84/3 198/24/3 200/24/3 202/84/3
f 184/84/16 185/18/16 201/18/16 202/84/16
f 165/18/2 35/18/2 195/18/2 194/18/2
f 33/24/4 164/24/4 198/24/4 199/24/4
f 183/24/16 184/84/16 202/84/16 200/24/16
f 204/71/2 205/14/2 206/14/2 203/71/2
f 203/71/2 206/14/2 210/14/2 209/71/2
f 206/14/2 208/13/2 211/13/2 210/14/2
f 205/14/2 207/13/2 208/13/2 206/14/2
f 17/14/8 178/71/8 209/71/8 210/14/8
f 178/71/5 162/71/5 203/71/5 209/71/5
f 16/13/3 160/13/3 208/13/3 207/13/3
f 21/1/13 16/1/13 207/1/13 205/1/13
f 213/72/5 212/73/5 219/73/5 218/72/5
f 219/73/5 220/15/5 215/15/5 216/73/5
f 218/72/5 219/73/5 216/73/5 217/72/5
f 212/73/5 214/15/5 220/15/5 219/73/5
f 158/72/4 11/72/4 213/72/4 218/72/4
f 13/15/2 159/15/2 220/15/2 214/15/2
f 11/1/15 12/1/15 212/1/15 213/1/15
f 27/15/14 29/73/14 216/73/14 215/15/14
f 222/81/4 224/10/4 223/10/4 226/81/4
f 221/22/4 222/81/4 226/81/4 225/22/4
f 226/81/4 223/10/4 227/10/4 229/81/4
f 225/22/4 226/81/4 229/81/4 228/22/4
f 18/22/3 161/22/3 225/22/3 228/22/3
f 177/81/17 18/22/17 228/22/17 229/81/17
f 182/10/17 177/81/17 229/81/17 227/10/17
f 161/22/3 20/22/3 221/22/3 225/22/3
